<svg xmlns="http://www.w3.org/2000/svg" viewBox="0 0 93.46 93.46"><defs><style>.cls-1{fill:#da7493;}</style></defs><g id="Layer_2" data-name="Layer 2"><g id="Layer_1-2" data-name="Layer 1"><path class="cls-1" d="M44.57,56.75a4,4,0,0,0,4.19,0l.54,2a3.63,3.63,0,0,0-.7,3.18c.47,1.89.88,2.28,1.42,2.7s1.51,1.8-.51,4.5S42.2,76.93,39.39,82.76,36.8,88,36.45,90.52A3.14,3.14,0,0,1,31.77,93a3,3,0,0,1-1.51-3.8c.44-1.18,10.57-13.31,10.57-13.31s4.44-5.68,5.7-8.65L44.62,69a6.82,6.82,0,0,1-.93-3c0-1.4,1.51-2.36,1.56-4.31S44,59.54,44,59.54Z"/><path class="cls-1" d="M46.82,74.16s-8,9.89-8.63,14.13a4.21,4.21,0,0,0,1.21,3.94,4.5,4.5,0,0,0,4.89.86,3.82,3.82,0,0,0,2.28-3,2.51,2.51,0,0,0,0-.82C46.38,87.36,45.45,78.4,46.82,74.16Z"/><path class="cls-1" d="M48,73.58s-2.28,10.62.63,18.3a2.48,2.48,0,0,0,3.3,1.4,2.24,2.24,0,0,0,1.72-2,3.06,3.06,0,0,0-.46-1.86A40.17,40.17,0,0,1,48,73.58Z"/><path class="cls-1" d="M48.92,72.63s1.74,15.94,9.13,20.55a1.78,1.78,0,0,0,1.33.24,1.22,1.22,0,0,0,1-1.14A2,2,0,0,0,60,90.86C58.29,88.54,50.7,78,48.92,72.63Z"/><path class="cls-1" d="M52.29,55.35a4,4,0,0,0,3-3l1.79,1a3.59,3.59,0,0,0,1.74,2.74c1.68,1,2.24,1,2.92.91s2.34.21,2.82,3.54.36,10.7,2.5,16.8S68.85,82.9,70.43,85a3.14,3.14,0,0,1-1.54,5.08,3.05,3.05,0,0,1-3.76-1.62c-.52-1.14-1.93-16.89-1.93-16.89s-.88-7.15-2.09-10.14L61,64a6.89,6.89,0,0,1-2.74-1.43c-1-1-.61-2.74-2-4.15s-2.43-.7-2.43-.7Z"/><path class="cls-1" d="M66.19,66.06s1.36,12.63,3.89,16.1a4.23,4.23,0,0,0,3.64,1.93,4.53,4.53,0,0,0,4.07-2.85,3.85,3.85,0,0,0-.47-3.7,2.71,2.71,0,0,0-.57-.6C75.21,75.71,68.22,70,66.19,66.06Z"/><path class="cls-1" d="M66.62,64.81S72.52,73.93,80,77.3A2.47,2.47,0,0,0,83.33,76a2.24,2.24,0,0,0-.21-2.65,3.07,3.07,0,0,0-1.64-1A40.2,40.2,0,0,1,66.62,64.81Z"/><path class="cls-1" d="M66.6,63.49s12.5,10.05,21,8.08a1.73,1.73,0,0,0,1.11-.77,1.21,1.21,0,0,0-.1-1.5,1.93,1.93,0,0,0-1.28-.73C84.47,68.12,71.63,66,66.6,63.49Z"/><path class="cls-1" d="M56.75,48.9a4,4,0,0,0,0-4.19l2-.55a3.6,3.6,0,0,0,3.18.7c1.89-.47,2.28-.87,2.7-1.42s1.8-1.5,4.5.51,7.82,7.31,13.65,10.12S88,56.66,90.52,57A3.14,3.14,0,0,1,93,61.7a3,3,0,0,1-3.8,1.5c-1.18-.43-13.31-10.57-13.31-10.57s-5.68-4.44-8.65-5.7L69,48.84a6.82,6.82,0,0,1-3,.93c-1.4,0-2.36-1.51-4.31-1.56s-2.21,1.23-2.21,1.23Z"/><path class="cls-1" d="M74.16,46.64s9.89,8,14.13,8.63a4.21,4.21,0,0,0,3.94-1.21,4.5,4.5,0,0,0,.86-4.89,3.82,3.82,0,0,0-3-2.28,2.51,2.51,0,0,0-.82,0C87.36,47.09,78.4,48,74.16,46.64Z"/><path class="cls-1" d="M73.58,45.45s10.62,2.28,18.3-.63a2.48,2.48,0,0,0,1.4-3.3,2.24,2.24,0,0,0-2-1.72,3.06,3.06,0,0,0-1.86.46A40,40,0,0,1,73.58,45.45Z"/><path class="cls-1" d="M72.63,44.54s15.94-1.74,20.55-9.13a1.77,1.77,0,0,0,.24-1.33,1.23,1.23,0,0,0-1.14-1,2,2,0,0,0-1.42.39C88.54,35.17,78,42.76,72.63,44.54Z"/><path class="cls-1" d="M55.35,41.17a4,4,0,0,0-3-3l1-1.78a3.62,3.62,0,0,0,2.74-1.75c1-1.68,1-2.23.91-2.92s.21-2.34,3.54-2.82,10.7-.36,16.8-2.49S82.9,24.61,85,23a3.14,3.14,0,0,1,5.08,1.53,3.05,3.05,0,0,1-1.62,3.76c-1.14.52-16.89,1.93-16.89,1.93s-7.15.88-10.14,2.09l2.58.12a6.89,6.89,0,0,1-1.43,2.74c-1,1-2.74.61-4.15,1.95s-.7,2.43-.7,2.43Z"/><path class="cls-1" d="M66.06,27.27s12.63-1.36,16.1-3.89a4.22,4.22,0,0,0,1.93-3.64,4.53,4.53,0,0,0-2.85-4.07,3.85,3.85,0,0,0-3.7.47,2.71,2.71,0,0,0-.6.57C75.71,18.25,70,25.24,66.06,27.27Z"/><path class="cls-1" d="M64.81,26.84s9.12-5.9,12.49-13.39A2.47,2.47,0,0,0,76,10.13a2.26,2.26,0,0,0-2.65.21,3.06,3.06,0,0,0-1,1.65A40.25,40.25,0,0,1,64.81,26.84Z"/><path class="cls-1" d="M63.49,26.87s10.05-12.51,8.08-21a1.76,1.76,0,0,0-.77-1.11,1.22,1.22,0,0,0-1.5.11,1.91,1.91,0,0,0-.73,1.27C68.12,9,66,21.83,63.49,26.87Z"/><path class="cls-1" d="M48.9,36.71a4,4,0,0,0-4.19,0l-.55-2a3.6,3.6,0,0,0,.7-3.18c-.47-1.89-.87-2.28-1.42-2.7s-1.5-1.8.51-4.5,7.31-7.82,10.12-13.64S56.66,5.52,57,2.94A3.14,3.14,0,0,1,61.7.43a3.05,3.05,0,0,1,1.5,3.81c-.43,1.17-10.57,13.3-10.57,13.3s-4.44,5.68-5.7,8.65l1.91-1.74a6.88,6.88,0,0,1,.93,2.95c0,1.4-1.51,2.36-1.56,4.31s1.23,2.21,1.23,2.21Z"/><path class="cls-1" d="M46.64,19.3s8-9.89,8.63-14.13a4.22,4.22,0,0,0-1.21-3.94A4.52,4.52,0,0,0,49.17.37a3.82,3.82,0,0,0-2.28,2.95,2.56,2.56,0,0,0,0,.83C47.09,6.1,48,15.06,46.64,19.3Z"/><path class="cls-1" d="M45.45,19.88s2.28-10.62-.63-18.3a2.48,2.48,0,0,0-3.3-1.4,2.24,2.24,0,0,0-1.72,2,3.06,3.06,0,0,0,.46,1.86A40,40,0,0,1,45.45,19.88Z"/><path class="cls-1" d="M44.54,20.83S42.8,4.89,35.41.28A1.77,1.77,0,0,0,34.08,0a1.23,1.23,0,0,0-1,1.14,2,2,0,0,0,.39,1.42C35.17,4.92,42.76,15.48,44.54,20.83Z"/><path class="cls-1" d="M41.17,38.11a4,4,0,0,0-3,3l-1.78-1a3.62,3.62,0,0,0-1.75-2.74c-1.68-1-2.23-1-2.92-.91s-2.34-.21-2.82-3.54-.36-10.7-2.49-16.8S24.61,10.56,23,8.49a3.14,3.14,0,0,1,1.53-5.08A3.05,3.05,0,0,1,28.33,5c.52,1.15,1.93,16.89,1.93,16.89s.88,7.15,2.09,10.14l.12-2.58a6.89,6.89,0,0,1,2.74,1.43c1,1,.61,2.74,1.95,4.15s2.43.7,2.43.7Z"/><path class="cls-1" d="M27.27,27.4s-1.36-12.62-3.89-16.09a4.2,4.2,0,0,0-3.64-1.94,4.54,4.54,0,0,0-4.07,2.86,3.83,3.83,0,0,0,.47,3.69,3,3,0,0,0,.57.61C18.25,17.75,25.24,23.43,27.27,27.4Z"/><path class="cls-1" d="M26.84,28.65s-5.9-9.12-13.39-12.49a2.47,2.47,0,0,0-3.32,1.34,2.24,2.24,0,0,0,.21,2.64,3.06,3.06,0,0,0,1.65,1A40.25,40.25,0,0,1,26.84,28.65Z"/><path class="cls-1" d="M26.87,30s-12.51-10-21-8.08a1.79,1.79,0,0,0-1.11.77,1.23,1.23,0,0,0,.11,1.51,2,2,0,0,0,1.27.73C9,25.34,21.83,27.44,26.87,30Z"/><path class="cls-1" d="M36.71,44.57a4,4,0,0,0,0,4.19l-2,.54a3.63,3.63,0,0,0-3.18-.7c-1.89.47-2.28.88-2.7,1.42s-1.8,1.51-4.5-.51S16.53,42.2,10.71,39.39,5.52,36.8,2.94,36.45A3.14,3.14,0,0,1,.43,31.77a3,3,0,0,1,3.81-1.51c1.17.44,13.3,10.57,13.3,10.57s5.68,4.44,8.65,5.7l-1.74-1.91a6.88,6.88,0,0,1,2.95-.93c1.4,0,2.36,1.51,4.31,1.56S33.92,44,33.92,44Z"/><path class="cls-1" d="M19.3,46.82s-9.89-8-14.13-8.63A4.22,4.22,0,0,0,1.23,39.4a4.52,4.52,0,0,0-.86,4.89,3.82,3.82,0,0,0,2.95,2.28,2.56,2.56,0,0,0,.83,0C6.1,46.38,15.06,45.45,19.3,46.82Z"/><path class="cls-1" d="M19.88,48s-10.62-2.28-18.3.63a2.48,2.48,0,0,0-1.4,3.3,2.24,2.24,0,0,0,2,1.72,3.06,3.06,0,0,0,1.86-.46A40.17,40.17,0,0,1,19.88,48Z"/><path class="cls-1" d="M20.83,48.92S4.89,50.66.28,58.05A1.78,1.78,0,0,0,0,59.38a1.22,1.22,0,0,0,1.14,1A2,2,0,0,0,2.6,60C4.92,58.29,15.48,50.7,20.83,48.92Z"/><path class="cls-1" d="M38.11,52.29a4,4,0,0,0,3,3l-1,1.79a3.59,3.59,0,0,0-2.74,1.74c-1,1.68-1,2.24-.91,2.92S36.2,64,32.87,64.52s-10.7.36-16.8,2.5-5.51,1.83-7.58,3.41a3.14,3.14,0,0,1-5.08-1.54A3.05,3.05,0,0,1,5,65.13c1.15-.52,16.89-1.93,16.89-1.93s7.15-.88,10.14-2.09L29.48,61a6.89,6.89,0,0,1,1.43-2.74c1-1,2.74-.61,4.15-2s.7-2.43.7-2.43Z"/><path class="cls-1" d="M27.4,66.19s-12.62,1.36-16.09,3.89a4.22,4.22,0,0,0-1.94,3.64,4.54,4.54,0,0,0,2.86,4.07,3.83,3.83,0,0,0,3.69-.47,3,3,0,0,0,.61-.57C17.75,75.21,23.43,68.22,27.4,66.19Z"/><path class="cls-1" d="M28.65,66.62S19.53,72.52,16.16,80a2.47,2.47,0,0,0,1.34,3.32,2.23,2.23,0,0,0,2.64-.21,3.07,3.07,0,0,0,1-1.64A40.2,40.2,0,0,1,28.65,66.62Z"/><path class="cls-1" d="M30,66.6s-10,12.5-8.08,21a1.77,1.77,0,0,0,.77,1.11,1.23,1.23,0,0,0,1.51-.1,2,2,0,0,0,.73-1.28C25.34,84.47,27.44,71.63,30,66.6Z"/></g></g></svg>